HIERARCHY
ROOT hip
{
  OFFSET 0 0 0
  CHANNELS 6 Xposition Yposition Zposition Zrotation Yrotation Xrotation
  JOINT abdomen
  {
    OFFSET 0 20.6881 -0.73152
    CHANNELS 3 Zrotation Xrotation Yrotation
    JOINT chest
    {
      OFFSET 0 11.7043 -0.48768
      CHANNELS 3 Zrotation Xrotation Yrotation
      JOINT neck
      {
        OFFSET 0 22.1894 -2.19456
        CHANNELS 3 Zrotation Xrotation Yrotation
        JOINT head
        {
          OFFSET -0.24384 7.07133 1.2192
          CHANNELS 3 Zrotation Xrotation Yrotation
          JOINT leftEye
          {
            OFFSET 4.14528 8.04674 8.04672
            CHANNELS 3 Zrotation Xrotation Yrotation
            End Site
            {
              OFFSET 1 0 0
            }
          }
          JOINT rightEye
          {
            OFFSET -3.6576 8.04674 8.04672
            CHANNELS 3 Zrotation Xrotation Yrotation
            End Site
            {
              OFFSET 1 0 0
            }
          }
        }
      }
      JOINT rCollar
      {
        OFFSET -2.68224 19.2634 -4.8768
        CHANNELS 3 Zrotation Xrotation Yrotation
        JOINT rShldr
        {
          OFFSET -8.77824 -1.95073 1.46304
          CHANNELS 3 Zrotation Xrotation Yrotation
          JOINT rForeArm
          {
            OFFSET -28.1742 -1.7115 0.48768
            CHANNELS 3 Zrotation Xrotation Yrotation
            JOINT rHand
            {
              OFFSET -22.5879 0.773209 7.07136
              CHANNELS 3 Zrotation Xrotation Yrotation
              JOINT rThumb1
              {
                OFFSET -1.2192 -0.487915 3.41376
                CHANNELS 3 Zrotation Xrotation Yrotation
                JOINT rThumb2
                {
                  OFFSET -3.37035 -0.52449 3.41376
                  CHANNELS 3 Zrotation Xrotation Yrotation
                  End Site
                  {
                    OFFSET -1.78271 -1.18214 1.43049
                  }
                }
              }
              JOINT rIndex1
              {
                OFFSET -7.75947 0.938293 5.60832
                CHANNELS 3 Zrotation Xrotation Yrotation
                JOINT rIndex2
                {
                  OFFSET -2.54057 -0.884171 1.56538
                  CHANNELS 3 Zrotation Xrotation Yrotation
                  End Site
                  {
                    OFFSET -1.62519 -0.234802 1.16502
                  }
                }
              }
              JOINT rMid1
              {
                OFFSET -8.24714 1.18213 3.41376
                CHANNELS 3 Zrotation Xrotation Yrotation
                JOINT rMid2
                {
                  OFFSET -3.10165 -0.590103 1.0647
                  CHANNELS 3 Zrotation Xrotation Yrotation
                  End Site
                  {
                    OFFSET -2.48547 -0.328903 0.83742
                  }
                }
              }
              JOINT rRing1
              {
                OFFSET -8.82822 0.546677 1.51678
                CHANNELS 3 Zrotation Xrotation Yrotation
                JOINT rRing2
                {
                  OFFSET -2.60934 -0.819778 -0.0198488
                  CHANNELS 3 Zrotation Xrotation Yrotation
                  End Site
                  {
                    OFFSET -2.33842 -0.294052 0.168128
                  }
                }
              }
              JOINT rPinky1
              {
                OFFSET -8.27202 -0.0477905 -0.4584
                CHANNELS 3 Zrotation Xrotation Yrotation
                JOINT rPinky2
                {
                  OFFSET -1.82734 -0.647385 -0.700984
                  CHANNELS 3 Zrotation Xrotation Yrotation
                  End Site
                  {
                    OFFSET -1.69225 -0.51767 -0.607171
                  }
                }
              }
            }
          }
        }
      }
      JOINT lCollar
      {
        OFFSET 2.68224 19.2634 -4.8768
        CHANNELS 3 Zrotation Xrotation Yrotation
        JOINT lShldr
        {
          OFFSET 8.77824 -1.95073 1.46304
          CHANNELS 3 Zrotation Xrotation Yrotation
          JOINT lForeArm
          {
            OFFSET 28.1742 -1.7115 0.48768
            CHANNELS 3 Zrotation Xrotation Yrotation
            JOINT lHand
            {
              OFFSET 22.5879 0.773209 7.07136
              CHANNELS 3 Zrotation Xrotation Yrotation
              JOINT lThumb1
              {
                OFFSET 1.2192 -0.487915 3.41376
                CHANNELS 3 Zrotation Xrotation Yrotation
                JOINT lThumb2
                {
                  OFFSET 3.37035 -0.52449 3.41376
                  CHANNELS 3 Zrotation Xrotation Yrotation
                  End Site
                  {
                    OFFSET 1.78271 -1.18214 1.43049
                  }
                }
              }
              JOINT lIndex1
              {
                OFFSET 7.75947 0.938293 5.60832
                CHANNELS 3 Zrotation Xrotation Yrotation
                JOINT lIndex2
                {
                  OFFSET 2.54057 -0.884171 1.56538
                  CHANNELS 3 Zrotation Xrotation Yrotation
                  End Site
                  {
                    OFFSET 1.62519 -0.234802 1.16502
                  }
                }
              }
              JOINT lMid1
              {
                OFFSET 8.24714 1.18213 3.41376
                CHANNELS 3 Zrotation Xrotation Yrotation
                JOINT lMid2
                {
                  OFFSET 3.10165 -0.590103 1.0647
                  CHANNELS 3 Zrotation Xrotation Yrotation
                  End Site
                  {
                    OFFSET 2.48547 -0.328903 0.83742
                  }
                }
              }
              JOINT lRing1
              {
                OFFSET 8.82822 0.546677 1.51678
                CHANNELS 3 Zrotation Xrotation Yrotation
                JOINT lRing2
                {
                  OFFSET 2.60934 -0.819778 -0.0198488
                  CHANNELS 3 Zrotation Xrotation Yrotation
                  End Site
                  {
                    OFFSET 2.33842 -0.294052 0.168128
                  }
                }
              }
              JOINT lPinky1
              {
                OFFSET 8.27202 -0.0477905 -0.4584
                CHANNELS 3 Zrotation Xrotation Yrotation
                JOINT lPinky2
                {
                  OFFSET 1.82734 -0.647385 -0.700984
                  CHANNELS 3 Zrotation Xrotation Yrotation
                  End Site
                  {
                    OFFSET 1.69225 -0.51767 -0.607171
                  }
                }
              }
            }
          }
        }
      }
    }
  }
  JOINT rButtock
  {
    OFFSET -8.77824 4.35084 1.2192
    CHANNELS 3 Zrotation Xrotation Yrotation
    JOINT rThigh
    {
      OFFSET 0 -1.70687 -2.19456
      CHANNELS 3 Zrotation Xrotation Yrotation
      JOINT rShin
      {
        OFFSET 0 -36.8199 0.73152
        CHANNELS 3 Zrotation Xrotation Yrotation
        JOINT rFoot
        {
          OFFSET 0.73152 -45.1104 -5.12064
          CHANNELS 3 Zrotation Xrotation Yrotation
          End Site
          {
            OFFSET -1.1221 -3.69964 12.103
          }
        }
      }
    }
  }
  JOINT lButtock
  {
    OFFSET 8.77824 4.35084 1.2192
    CHANNELS 3 Zrotation Xrotation Yrotation
    JOINT lThigh
    {
      OFFSET 0 -1.70687 -2.19456
      CHANNELS 3 Zrotation Xrotation Yrotation
      JOINT lShin
      {
        OFFSET 0 -36.8199 0.73152
        CHANNELS 3 Zrotation Xrotation Yrotation
        JOINT lFoot
        {
          OFFSET -0.73152 -45.1104 -5.12064
          CHANNELS 3 Zrotation Xrotation Yrotation
          End Site
          {
            OFFSET 1.1221 -3.69964 12.103
          }
        }
      }
    }
  }
}
MOTION
Frames:	4
Frame Time:	0.03333
0.0 0.0 0.0 0.0 0.0 0.0 0.0 0.0 0.0 0.0 0.0 0.0 0.0 0.0 0.0 0.0 0.0 0.0 0.0 0.0 0.0 0.0 0.0 0.0 0.0 0.0 0.0 0.0 0.0 0.0 0.0 0.0 0.0 0.0 0.0 0.0 0.0 0.0 0.0 0.0 0.0 0.0 0.0 0.0 0.0 0.0 0.0 0.0 0.0 0.0 0.0 0.0 0.0 0.0 0.0 0.0 0.0 0.0 0.0 0.0 0.0 0.0 0.0 0.0 0.0 0.0 0.0 0.0 0.0 0.0 0.0 0.0 0.0 0.0 0.0 0.0 0.0 0.0 0.0 0.0 0.0 0.0 0.0 0.0 0.0 0.0 0.0 0.0 0.0 0.0 0.0 0.0 0.0 0.0 0.0 0.0 0.0 0.0 0.0 0.0 0.0 0.0 0.0 0.0 0.0 0.0 0.0 0.0 0.0 0.0 0.0 0.0 0.0 0.0 0.0 0.0 0.0 0.0 0.0 0.0 0.0 0.0 0.0 0.0 0.0 0.0 0.0 0.0 0.0 0.0 0.0 0.0
-0.054900000000000004 62.4035 0.025500000000000002 -179.890867 9.895442 178.793764 1.587321 2.859815 -56.031207 -10.236091 -0.314846 80.876691 10.439929 -10.003101 100.51317 -41.853801 29.136371 -107.85711 -69.21683 -6.944392 10.049799 62.903892 -14.244458 -23.091637 -77.786769 -74.800805 -175.57815 -159.91498 22.769221 171.617354 161.87776 82.099912 25.135323 174.20755 5.722854 100.895998 10.493048 -12.098354 30.214246 158.165947 6.55508 -113.857142 175.595802 47.897749 -166.343922 -4.902319 34.261087 -83.713863 107.417281 51.059206 -80.158044 27.279186 64.980432 -5.895718 98.015629 17.764244 -75.793239 26.13027 69.97452 -22.023195 37.808131 8.289378 -66.988742 30.178147 70.293716 -1.616627 35.106319 58.045568 -109.843868 149.104974 33.769079 -157.777416 96.222974 79.421526 104.439331 -17.482144 -30.428228 34.162473 -0.358571 -11.987847 -21.557081 88.890343 26.922758 -50.936107 169.476497 -14.122342 -93.827382 91.139022 57.601206 -67.498279 90.827466 65.325262 -70.706407 -166.924918 1.379862 -98.89898 -88.228664 0.508095 82.135372 -27.192599 51.155905 13.772111 -77.158537 -6.272151 67.483394 175.375956 70.661215 144.893794 2.2999 -47.713283 -0.0 -2.394422 46.197811 -124.703865 3.458376 -0.7707 122.012871 -58.692462 57.012966 67.42048 -52.22806 -12.725072 -78.181288 2.022655 55.328096 -7.940701 2.536121 4.178756 138.361085 57.805759 61.38908 -72.142189
-1.2297 63.57770000000001 0.1976 -14.929291 52.522396 -7.95878 2.473485 11.23784 40.513639 0.401202 -8.56564 -34.993709 -17.269248 23.157357 -111.337125 35.419965 31.592014 106.258058 3.688183 1.258957 37.683859 -18.324112 -0.340595 2.111526 -122.952553 49.883365 125.807419 -6.359605 -5.214698 55.335458 47.327435 68.501936 -129.308504 167.546216 -6.015751 139.435063 -6.008633 -8.329261 -4.817866 13.85874 -5.685334 6.808436 -163.486118 -0.702942 113.618555 -169.990438 7.217419 108.34071 12.498808 -40.33457 3.328587 -169.002748 12.461642 136.481723 -166.728594 -1.404692 168.285162 2.042483 56.454729 -5.746907 -15.482988 -23.546301 0.336287 33.903808 74.294433 5.283018 82.752249 77.348343 -85.906418 13.461597 2.535203 -67.973027 -175.825766 -64.077432 162.694494 3.914039 17.255162 -5.236965 12.968666 18.034384 3.736711 -12.173762 -51.246754 -9.118787 18.507158 29.140383 4.126907 175.857891 -1.503996 -90.874175 -163.843752 -76.644708 -148.031274 11.460371 0.011023 18.687304 -0.90337 1.382428 9.025314 -156.542277 -69.834537 -153.939522 156.542431 61.596812 -177.443322 152.935343 -59.882926 155.702161 -4.944096 5.222125 -1.268305 -8.123925 -7.816275 51.341823 46.200706 11.514499 41.738826 -147.319348 -15.328075 146.71148 -1.424098 -3.000211 1.754618 44.655358 -47.766501 -78.306848 -56.079309 -18.280965 130.722257 -46.413562 17.152251 -8.397189
-2.0264 64.713 0.3069 -25.491853 57.113886 -19.288302 7.249853 17.477252 -1.898488 5.079346 -11.353699 11.752426 -3.600558 35.168434 -166.490781 14.008097 51.794142 151.726389 -133.821348 20.151934 45.2541 38.518481 -4.356383 -12.425386 -8.497751 -88.438851 -31.886774 114.577926 46.880467 -110.977196 86.472389 -27.024166 76.577352 -130.973147 71.571747 110.33733 -169.816392 -2.103914 99.251691 -32.875735 -45.229171 -23.517282 -154.064804 -46.913079 141.893652 36.291459 78.595117 -47.38587 0.637658 -11.363517 2.548112 -3.966712 -12.859014 -5.14745 -127.755296 52.024255 135.132238 23.840725 32.495439 -1.842521 -137.551893 -21.934064 -113.232956 28.766379 26.696937 -11.654501 3.528415 18.174501 -2.97032 -75.436667 -10.223101 -17.049412 -164.410766 -24.495373 -107.473169 -174.772815 -7.469131 -151.294355 164.465419 5.969735 -95.369145 -148.632414 -49.979392 -90.164488 -0.127585 -63.498095 31.087992 16.279679 62.785317 -14.411147 16.614844 62.417867 -8.180674 -2.958604 -6.556976 -19.713082 75.257311 -58.126592 96.300529 116.490476 -25.221177 179.659812 1.481554 -9.092371 5.72369 93.043263 -27.225821 120.234593 -141.748682 67.552855 -40.464311 169.269108 77.981023 0.0 10.643679 37.337086 8.67439 -73.591256 25.663276 -15.50278 -1.017791 0.678093 1.320803 59.25892 -60.01963 -117.255273 -25.623077 -73.123914 38.847465 -24.000502 80.995899 102.120634
